<?xml version="1.0" encoding="UTF-8"?>
<svg xmlns="http://www.w3.org/2000/svg" xmlns:xlink="http://www.w3.org/1999/xlink" width="301pt" height="117pt" viewBox="0 0 301 117" version="1.1">
<g id="surface1">
<path style=" stroke:none;fill-rule:evenodd;fill:rgb(38.431373%,73.333333%,27.45098%);fill-opacity:1;" d="M 196.683594 96.152344 C 192.195312 89.121094 189.820312 80.949219 189.832031 72.605469 C 189.847656 55.933594 199.207031 40.683594 214.046875 33.152344 C 228.886719 25.625 246.6875 27.09375 260.097656 36.953125 C 273.507812 46.8125 280.253906 63.390625 277.550781 79.839844 L 277.429688 80.699219 L 207.082031 80.699219 C 210.703125 92.578125 221.605469 100.726562 234 100.8125 L 283.914062 100.8125 L 283.914062 0 L 300.0625 0 L 300.0625 117 L 234 117 C 224.601562 116.988281 215.464844 113.933594 207.941406 108.292969 C 200.414062 113.933594 191.277344 116.988281 181.878906 117 L 181.515625 117 C 157.152344 116.925781 137.421875 97.148438 137.347656 72.726562 L 137.347656 44.519531 C 122.222656 45.117188 110.25 57.550781 110.1875 72.726562 L 110.1875 117 L 94.039062 117 L 94.039062 72.726562 C 94.085938 48.675781 113.238281 29.039062 137.226562 28.453125 L 137.226562 0 L 153.375 0 L 153.375 28.332031 L 177.230469 28.332031 L 177.230469 44.519531 L 153.375 44.519531 L 153.375 72.726562 C 153.226562 83.09375 158.84375 92.679688 167.945312 97.601562 C 177.046875 102.527344 188.121094 101.964844 196.683594 96.152344 Z M 89.390625 116.878906 L 45.101562 116.878906 C 20.710938 116.878906 0.9375 97.054688 0.9375 72.605469 C 0.9375 48.152344 20.710938 28.332031 45.101562 28.332031 C 69.496094 28.332031 89.269531 48.152344 89.269531 72.605469 L 89.269531 116.878906 Z M 261.035156 64.507812 C 257.425781 52.640625 246.5 44.527344 234.121094 44.527344 C 221.742188 44.527344 210.816406 52.640625 207.207031 64.507812 Z M 73.363281 100.8125 L 73.363281 72.605469 C 73.363281 57.023438 60.765625 44.394531 45.226562 44.394531 C 29.683594 44.394531 17.085938 57.023438 17.085938 72.605469 C 17.085938 88.183594 29.683594 100.8125 45.226562 100.8125 Z M 73.363281 100.8125 "/>
</g>
</svg>
